<?xml version="1.0" encoding="utf-8"?>
<!-- Generator: Adobe Illustrator 27.6.1, SVG Export Plug-In . SVG Version: 6.00 Build 0)  -->
<svg version="1.1" id="Layer_1" xmlns="http://www.w3.org/2000/svg" xmlns:xlink="http://www.w3.org/1999/xlink" x="0px" y="0px"
	 viewBox="0 0 500 500" style="enable-background:new 0 0 500 500;" xml:space="preserve">
<style type="text/css">
	.st0{fill:#99CC11;}
	.st1{fill:#FFAA22;}
	.st2{fill:#CC1111;}
	.st3{fill:#4488EE;}
</style>
<g>
	<path class="st0" d="M481.12,275.57v87.22c0,6.02-4.88,13.72-10.9,17.2L383,430.33c-6.02,3.48-10.9,1.41-10.9-4.61v-87.22
		c0-6.02,4.88-13.72,10.9-17.2l87.22-50.35C476.24,267.48,481.12,269.55,481.12,275.57z"/>
</g>
<g>
	<path class="st1" d="M481.12,157.83v87.22c0,6.02-4.88,13.72-10.9,17.2L383,312.59c-6.02,3.48-10.9,1.41-10.9-4.61v-87.22
		c0-6.02,4.88-13.72,10.9-17.2l87.22-50.35C476.24,149.74,481.12,151.8,481.12,157.83z"/>
</g>
<g>
	<path class="st2" d="M363.38,225.8v87.22c0,6.02-4.88,13.72-10.9,17.2l-87.22,50.35c-6.02,3.48-10.9,1.41-10.9-4.61v-87.22
		c0-6.02,4.88-13.72,10.9-17.2l87.22-50.35C358.5,217.72,363.38,219.78,363.38,225.8z"/>
</g>
<g>
	<path class="st3" d="M363.38,343.55v87.22c0,6.02-4.88,13.72-10.9,17.2l-87.22,50.35c-6.02,3.48-10.9,1.41-10.9-4.61v-87.22
		c0-6.02,4.88-13.72,10.9-17.2l87.22-50.35C358.5,335.46,363.38,337.52,363.38,343.55z"/>
</g>
<g>
	<path class="st3" d="M18.88,275.57v87.22c0,6.02,4.88,13.72,10.9,17.2L117,430.33c6.02,3.48,10.9,1.41,10.9-4.61v-87.22
		c0-6.02-4.88-13.72-10.9-17.2l-87.22-50.35C23.76,267.48,18.88,269.55,18.88,275.57z"/>
</g>
<g>
	<path class="st2" d="M18.88,157.83v87.22c0,6.02,4.88,13.72,10.9,17.2L117,312.59c6.02,3.48,10.9,1.41,10.9-4.61v-87.22
		c0-6.02-4.88-13.72-10.9-17.2l-87.22-50.35C23.76,149.74,18.88,151.8,18.88,157.83z"/>
</g>
<g>
	<path class="st2" d="M136.62,225.8v87.22c0,6.02,4.88,13.72,10.9,17.2l87.22,50.35c6.02,3.48,10.9,1.41,10.9-4.61v-87.22
		c0-6.02-4.88-13.72-10.9-17.2l-87.22-50.35C141.5,217.72,136.62,219.78,136.62,225.8z"/>
</g>
<g>
	<path class="st3" d="M136.62,343.55v87.22c0,6.02,4.88,13.72,10.9,17.2l87.22,50.35c6.02,3.48,10.9,1.41,10.9-4.61v-87.22
		c0-6.02-4.88-13.72-10.9-17.2l-87.22-50.35C141.5,335.46,136.62,337.52,136.62,343.55z"/>
</g>
<g>
	<path class="st2" d="M152.15,215.15l92.29,53.28c3.44,1.99,7.68,1.99,11.12,0l92.29-53.28c7.42-4.28,7.42-14.98,0-19.27
		l-92.29-53.28c-3.44-1.99-7.68-1.99-11.12,0l-92.29,53.28C144.74,200.17,144.74,210.87,152.15,215.15z"/>
</g>
<g>
	<path class="st2" d="M30.05,144.77l92.29,53.28c3.44,1.99,7.68,1.99,11.12,0l92.29-53.28c7.42-4.28,7.42-14.98,0-19.27
		l-92.29-53.28c-3.44-1.99-7.68-1.99-11.12,0l-92.29,53.28C22.64,129.79,22.64,140.49,30.05,144.77z"/>
</g>
<g>
	<path class="st1" d="M271.91,144.77l92.29,53.28c3.44,1.99,7.68,1.99,11.12,0l92.29-53.28c7.42-4.28,7.42-14.98,0-19.27
		l-92.29-53.28c-3.44-1.99-7.68-1.99-11.12,0l-92.29,53.28C264.5,129.79,264.5,140.49,271.91,144.77z"/>
</g>
<g>
	<path class="st1" d="M151.04,74.04l92.29,53.28c3.44,1.99,7.68,1.99,11.12,0l92.29-53.28c7.42-4.28,7.42-14.98,0-19.27L254.45,1.49
		c-3.44-1.99-7.68-1.99-11.12,0l-92.29,53.28C143.63,59.05,143.63,69.76,151.04,74.04z"/>
</g>
</svg>
