<svg width="140" height="67" viewBox="0 0 140 67" fill="none" xmlns="http://www.w3.org/2000/svg">
<path d="M6.42156 30.9553C6.0511 21.8689 3.94189 13.5627 14.6216 10.1767C18.714 8.87922 23.8546 7.82623 28.1382 8.9097C34.7882 10.5917 31.973 17.9095 28.8141 21.3262C26.5403 23.7854 24.3127 27.3305 20.8843 28.2946C14.9171 29.9726 10.2233 30.3854 6.42156 25.6339" stroke="white" stroke-width="2" stroke-linecap="round"/>
<path d="M12.4657 21.6413C15.6014 22.7672 22.7236 24.6267 23.171 20.3695" stroke="white" stroke-width="2" stroke-linecap="round"/>
<path d="M14.3555 15.518C14.5232 15.1024 14.8894 14.4332 14.3555 14.6834" stroke="white" stroke-width="2" stroke-linecap="round"/>
<path d="M23.2597 13.8506C23.5959 14.5259 23.2384 14.2779 22.9629 14.407" stroke="white" stroke-width="2" stroke-linecap="round"/>
<path d="M17.0291 29.9854C16.9699 34.4966 16.5605 38.8581 16.1387 43.3393" stroke="white" stroke-width="2" stroke-linecap="round"/>
<path d="M16.1368 43.3379C11.9291 46.9925 8.60038 51.362 4.82542 55.3935C3.41458 56.9003 1.95375 58.2423 1 60.0303" stroke="white" stroke-width="2" stroke-linecap="round"/>
<path d="M16.4336 43.0605C20.4103 50.3324 24.2189 57.6802 28.0088 65.0389" stroke="white" stroke-width="2" stroke-linecap="round"/>
<path d="M5.15625 35.8251C9.14614 36.0865 12.7733 35.8072 16.7314 35.5469" stroke="white" stroke-width="2" stroke-linecap="round"/>
<path d="M16.7305 35.5469C21.5607 36.8087 26.4468 37.9296 31.2737 39.1636" stroke="white" stroke-width="2" stroke-linecap="round"/>
<path d="M31.7584 27.3444C31.7256 27.5334 31.5403 27.751 31.1592 27.9654C30.8592 28.4217 30.4016 28.7128 29.9871 28.3328C29.3294 27.73 30.1361 26.7857 30.8226 26.7857C31.0962 26.7857 31.3242 26.8338 31.4872 26.9159C31.6869 27.0164 31.7891 27.1679 31.7584 27.3444Z" fill="#6FDC8C"/>
<path d="M31.462 39.0391C31.5171 36.2304 32.019 33.413 32.019 30.6226C32.019 29.6793 32.1767 28.5762 32.0087 27.6521C31.9675 27.4255 31.1614 26.8682 30.9463 26.8682C30.7361 26.8682 30.4188 28.3585 31.0907 28.0028C32.2037 27.4135 31.8111 26.7857 30.8226 26.7857C30.1361 26.7857 29.3294 27.73 29.9871 28.3328C30.8196 29.096 31.8262 27.1518 31.3795 26.6C30.9146 26.0257 29.7591 26.3568 29.6055 26.9713" stroke="white" stroke-width="2" stroke-linecap="round"/>
<path d="M20.8789 36.2502C22.3614 35.8211 23.974 35.0265 25.2109 34.1049C25.5168 33.8769 25.7228 33.088 26.2424 33.3107C26.6964 33.5053 26.5679 35.0826 26.6549 35.5179C26.906 36.7735 27.8579 36.7571 28.7797 37.1785C29.5647 37.5374 30.2463 38.1154 30.9044 38.6638" stroke="white" stroke-width="2" stroke-linecap="round"/>
<path d="M25.3383 36.0002C25.4506 35.9241 25.522 35.7712 25.522 35.5197C25.522 34.9241 26.011 35.5136 25.8066 36.0359C25.7519 36.1758 25.6474 36.3108 25.4704 36.417C24.9471 36.731 24.3972 36.7501 23.8511 36.5202C23.762 36.4826 22.95 36.1906 23.4385 36.1076C23.8245 36.0421 24.3133 35.9947 24.8355 35.9905C25.0005 35.9892 25.1689 35.9921 25.3383 36.0002Z" fill="#6FDC8C"/>
<path d="M24.2224 34.2098C24.4489 33.4548 25.1614 33.8018 25.6664 33.7559C25.7762 33.7459 25.278 32.9359 24.7691 33.1268C23.9254 33.4431 23.8007 35.0667 24.3668 35.6538C24.8255 36.1294 25.522 36.3049 25.522 35.5197C25.522 34.7646 26.308 35.9145 25.4704 36.417C24.9471 36.731 24.3972 36.7501 23.8511 36.5202C23.762 36.4826 22.95 36.1906 23.4385 36.1076C24.798 35.8767 27.4347 35.8719 28.3069 37.1803" stroke="white" stroke-width="2" stroke-linecap="round"/>
<path d="M26.0781 36.249C26.6173 36.4288 26.658 37.1773 27.3777 37.1773" stroke="white" stroke-width="2" stroke-linecap="round"/>
<path fill-rule="evenodd" clip-rule="evenodd" d="M139.18 1.13141e-09C139.18 1.13141e-09 139.18 0 139.179 0C121.657 0 107.453 14.2043 107.453 31.7263C107.453 49.2482 121.657 63.4526 139.179 63.4526C139.18 63.4526 139.18 63.4526 139.18 63.4526V1.13141e-09Z" fill="#6FDC8C"/>
</svg>
