<svg width="34" height="59" viewBox="0 0 34 59" fill="none" xmlns="http://www.w3.org/2000/svg">
<path d="M6.42156 23.4953C6.0511 14.409 3.94189 6.1027 14.6216 2.71673C18.714 1.41926 23.8546 0.366265 28.1382 1.44974C34.7882 3.13178 31.973 10.4496 28.8141 13.8662C26.5403 16.3254 24.3127 19.8705 20.8843 20.8346C14.9171 22.5127 10.2233 22.9254 6.42156 18.174" stroke="white" stroke-width="2" stroke-linecap="round"/>
<path d="M14.3555 8.0571C14.5232 7.64146 14.8894 6.97223 14.3555 7.22248" stroke="white" stroke-width="2" stroke-linecap="round"/>
<path d="M23.2597 6.39062C23.5959 7.06593 23.2384 6.81791 22.9629 6.94704" stroke="white" stroke-width="2" stroke-linecap="round"/>
<path d="M17.0271 22.5244C16.9679 27.0356 16.5585 31.3971 16.1367 35.8783" stroke="white" stroke-width="2" stroke-linecap="round"/>
<path d="M16.1368 35.8779C11.9291 39.5326 8.60038 43.902 4.82542 47.9336C3.41458 49.4403 1.95375 50.7823 1 52.5703" stroke="white" stroke-width="2" stroke-linecap="round"/>
<path d="M16.4336 35.5996C20.4103 42.8715 24.2189 50.2193 28.0088 57.578" stroke="white" stroke-width="2" stroke-linecap="round"/>
<path d="M5.15625 28.3651C9.14614 28.6265 12.7733 28.3473 16.7314 28.0869" stroke="white" stroke-width="2" stroke-linecap="round"/>
<path d="M16.7305 28.0869C21.5607 29.3487 26.4468 30.4697 31.2737 31.7036" stroke="white" stroke-width="2" stroke-linecap="round"/>
<path d="M12.7694 16.6583C16.0406 17.2905 23.3636 18.0367 23.1534 13.7612" stroke="white" stroke-width="2" stroke-linecap="round"/>
</svg>
