<svg width="71" height="59" viewBox="0 0 71 59" fill="none" xmlns="http://www.w3.org/2000/svg">
<path d="M6.42156 23.4953C6.0511 14.409 3.94189 6.1027 14.6216 2.71673C18.714 1.41926 23.8546 0.366265 28.1382 1.44974C34.7882 3.13178 31.973 10.4496 28.8141 13.8662C26.5403 16.3254 24.3127 19.8705 20.8843 20.8346C14.9171 22.5127 10.2233 22.9254 6.42156 18.174" stroke="white" stroke-width="2" stroke-linecap="round"/>
<path d="M14.3555 8.05807C14.5232 7.64243 14.8894 6.9732 14.3555 7.22345" stroke="white" stroke-width="2" stroke-linecap="round"/>
<path d="M23.2616 6.39062C23.5978 7.06593 23.2404 6.81791 22.9648 6.94704" stroke="white" stroke-width="2" stroke-linecap="round"/>
<path d="M17.0291 22.5254C16.9699 27.0366 16.5605 31.3981 16.1387 35.8793" stroke="white" stroke-width="2" stroke-linecap="round"/>
<path d="M16.1368 35.8779C11.9291 39.5326 8.60038 43.902 4.82542 47.9336C3.41458 49.4403 1.95375 50.7823 1 52.5703" stroke="white" stroke-width="2" stroke-linecap="round"/>
<path d="M16.4355 35.6006C20.4123 42.8725 24.2209 50.2203 28.0107 57.5789" stroke="white" stroke-width="2" stroke-linecap="round"/>
<path d="M5.15625 28.3661C9.14614 28.6275 12.7733 28.3483 16.7314 28.0879" stroke="white" stroke-width="2" stroke-linecap="round"/>
<path d="M16.7305 28.0879C21.5607 29.3497 26.4468 30.4706 31.2737 31.7046" stroke="white" stroke-width="2" stroke-linecap="round"/>
<path d="M12.1805 14.4753C15.3162 15.6012 22.4384 17.4607 22.8858 13.2035" stroke="white" stroke-width="2" stroke-linecap="round"/>
<circle cx="54.703" cy="19.5067" r="15.8631" fill="#FF8833"/>
</svg>
