<svg width="70" height="61" viewBox="0 0 70 61" fill="none" xmlns="http://www.w3.org/2000/svg">
<path d="M42.8473 25.1389C42.4769 16.0525 40.3677 7.74626 51.0474 4.36028C55.1398 3.06282 60.2804 2.00982 64.564 3.0933C71.214 4.77533 68.3988 12.0931 65.2398 15.5098C62.9661 17.969 60.7385 21.5141 57.3101 22.4782C51.3429 24.1562 46.6491 24.569 42.8473 19.8175" stroke="white" stroke-width="2" stroke-linecap="round"/>
<path d="M50.7812 9.70163C50.949 9.28599 51.3152 8.61676 50.7812 8.86701" stroke="white" stroke-width="2" stroke-linecap="round"/>
<path d="M59.6874 8.03418C60.0236 8.70948 59.6661 8.46147 59.3906 8.59059" stroke="white" stroke-width="2" stroke-linecap="round"/>
<path d="M53.4529 24.1689C53.3937 28.6802 52.9843 33.0416 52.5625 37.5229" stroke="white" stroke-width="2" stroke-linecap="round"/>
<path d="M52.5626 37.5215C48.3549 41.1761 45.0262 45.5456 41.2512 49.5771C39.8404 51.0839 38.3795 52.4259 37.4258 54.2139" stroke="white" stroke-width="2" stroke-linecap="round"/>
<path d="M52.8613 37.2441C56.8381 44.516 60.6467 51.8638 64.4365 59.2225" stroke="white" stroke-width="2" stroke-linecap="round"/>
<path d="M41.582 30.0087C45.5719 30.2701 49.1991 29.9908 53.1572 29.7305" stroke="white" stroke-width="2" stroke-linecap="round"/>
<path d="M53.1562 29.7305C57.9865 30.9923 62.8726 32.1132 67.6994 33.3472" stroke="white" stroke-width="2" stroke-linecap="round"/>
<path d="M59.6023 16.075C56.3227 15.4877 48.9902 14.8418 49.2589 19.1141" stroke="white" stroke-width="2" stroke-linecap="round"/>
<circle cx="15.8631" cy="15.8631" r="15.8631" fill="#FF7EB5"/>
</svg>
